<svg width="240" height="62" viewBox="0 0 240 62" fill="none" xmlns="http://www.w3.org/2000/svg">
<g clip-path="url(#clip0_349_2156)">
<path d="M62.087 49.0959C62.087 48.9673 62.0357 48.8544 61.9459 48.7698L41.7227 30.709V49.0802C41.7227 49.3437 41.9406 49.5569 42.2098 49.5569H61.6126C61.8722 49.5569 62.0838 49.3531 62.0838 49.0959H62.087Z" fill="#18AE54"/>
<path d="M62.087 12.3218C62.087 12.4504 62.0357 12.5633 61.9459 12.648L41.7227 30.7088V12.3375C41.7227 12.0741 41.9406 11.8608 42.2098 11.8608H61.6126C61.8722 11.8608 62.0838 12.0647 62.0838 12.3218H62.087Z" fill="#18AE54"/>
<path d="M40.2353 30.7089L20.887 11.77C20.4992 11.3905 20.2812 10.8762 20.2812 10.3399V6.65501C20.2812 6.31945 20.5024 6.02152 20.8293 5.92116L39.5783 0.0221644C39.8924 -0.0781907 40.2161 0.153881 40.2161 0.476898L40.2385 30.7089H40.2353Z" fill="#18AE54"/>
<path d="M40.2353 30.7087L20.887 49.6476C20.4992 50.0271 20.2812 50.5414 20.2812 51.0776V54.7626C20.2812 55.0981 20.5024 55.3961 20.8293 55.4964L39.5751 61.3923C39.8892 61.4926 40.2129 61.2606 40.2129 60.9375L40.2353 30.7056V30.7087Z" fill="#18AE54"/>
<path d="M37.7182 30.709H17.1872L0.130417 12.6608C-0.158029 12.3565 0.0631126 11.8579 0.489372 11.8579H17.5045C18.0525 11.8579 18.5781 12.0712 18.9659 12.4506L37.7214 30.7059L37.7182 30.709Z" fill="#F9DF31"/>
<path d="M37.7182 30.709H17.1872L0.130417 48.7541C-0.158029 49.0583 0.0631126 49.5569 0.489372 49.5569H17.5045C18.0525 49.5569 18.5781 49.3437 18.9659 48.9642L37.7214 30.709H37.7182Z" fill="#18AE54"/>
<path d="M75.0078 13.1434V48.2143C75.0078 48.9168 75.5911 49.4876 76.309 49.4876H100.478V42.9959H83.0555V33.5594H99.4937V27.3813H83.0555V18.3618H100.478V11.8701H76.309C75.5911 11.8701 75.0078 12.4409 75.0078 13.1434Z" fill="white"/>
<path d="M119.986 44.2848H119.979C119.713 44.313 119.403 44.3256 119.047 44.3256C117.874 44.3256 116.992 44.0684 116.396 43.5572C115.8 43.0461 115.505 42.1366 115.505 40.832V27.2778H119.425C120.143 27.2778 120.726 26.707 120.726 26.0045V22.8151C120.726 22.1126 120.143 21.5418 119.425 21.5418H115.505V15.9847C115.505 15.2822 114.922 14.7114 114.204 14.7114H108.948C108.23 14.7114 107.647 15.2822 107.647 15.9847V21.5418H104.977C104.259 21.5418 103.676 22.1126 103.676 22.8151V26.0045C103.676 26.707 104.259 27.2778 104.977 27.2778H107.647V41.6662C107.647 44.6549 108.41 46.8031 109.938 48.1046C111.467 49.4092 113.81 50.0584 116.973 50.0584C117.79 50.0584 118.515 50.027 119.143 49.9674C119.511 49.9329 119.845 49.8953 120.146 49.8545C120.479 49.8106 120.729 49.5346 120.729 49.2085V44.9371C120.729 44.5482 120.386 44.2441 119.992 44.2848H119.986Z" fill="white"/>
<path d="M143.839 22.702C141.804 21.5448 139.394 20.9678 136.605 20.9678C133.817 20.9678 131.397 21.5636 129.346 22.7522C127.295 23.9439 125.699 25.628 124.564 27.8107C123.427 29.9935 122.859 32.5682 122.859 35.5412V35.5663C122.859 38.5393 123.427 41.1109 124.564 43.2811C125.702 45.4544 127.317 47.126 129.414 48.2989C131.51 49.4718 134.013 50.0582 136.926 50.0582C138.967 50.0582 140.749 49.7979 142.269 49.2773C143.788 48.7567 145.076 48.0605 146.131 47.1918C147.188 46.3231 148.028 45.3666 148.65 44.3254C149.271 43.2811 149.688 42.2493 149.903 41.2238L149.983 40.9384H142.842L142.788 41.0952C142.608 41.6158 142.272 42.1302 141.775 42.6319C141.278 43.1368 140.637 43.5539 139.855 43.8832C139.073 44.2125 138.15 44.3787 137.086 44.3787C135.737 44.3787 134.573 44.0871 133.596 43.5069C132.618 42.9236 131.869 42.0863 131.346 40.9918C130.856 39.9663 130.596 38.7494 130.567 37.3413H150.223V34.9704C150.223 32.1542 149.669 29.6955 148.557 27.5943C147.448 25.4932 145.874 23.8624 143.842 22.7052L143.839 22.702ZM133.529 27.5128C134.461 26.9389 135.532 26.6535 136.74 26.6535C137.948 26.6535 139.009 26.9326 139.923 27.4877C140.836 28.0428 141.551 28.8739 142.067 29.9778C142.406 30.7085 142.634 31.5584 142.749 32.5212H130.654C130.772 31.5866 131 30.7555 131.343 30.0311C131.865 28.9272 132.596 28.0898 133.529 27.5159V27.5128Z" fill="white"/>
<path d="M169.69 21.065C169.645 21.0587 169.597 21.0524 169.549 21.0462C169.158 20.9929 168.751 20.9678 168.325 20.9678C166.655 20.9678 165.261 21.4445 164.143 22.401C163.024 23.3575 162.252 24.6935 161.825 26.4152H161.665V22.5484C161.665 21.9933 161.204 21.5417 160.636 21.5417H154.916C154.348 21.5417 153.887 21.9933 153.887 22.5484V48.4808C153.887 49.0358 154.348 49.4874 154.916 49.4874H160.636C161.204 49.4874 161.665 49.0358 161.665 48.4808V33.8477C161.665 32.4929 161.906 31.3451 162.383 30.4074C162.864 29.4697 163.556 28.7578 164.46 28.2686C165.367 27.7825 166.46 27.5379 167.735 27.5379C168.303 27.5379 168.838 27.5755 169.335 27.6539C169.341 27.6539 169.344 27.6539 169.351 27.6539C169.982 27.7543 170.562 27.2901 170.562 26.6629V22.0591C170.562 21.5605 170.194 21.1371 169.69 21.0619V21.065Z" fill="white"/>
<path d="M190.384 20.9678C188.237 20.9678 186.432 21.4288 184.977 22.3508C183.522 23.2728 182.42 24.5335 181.673 26.1298H181.513V22.8149C181.513 22.1124 180.929 21.5417 180.212 21.5417H175.036C174.318 21.5417 173.734 22.1124 173.734 22.8149V48.2142C173.734 48.9167 174.318 49.4874 175.036 49.4874H180.212C180.929 49.4874 181.513 48.9167 181.513 48.2142V33.4275C181.513 32.2107 181.747 31.1413 182.218 30.2224C182.689 29.3004 183.349 28.5791 184.202 28.0585C185.054 27.5379 186.057 27.2776 187.211 27.2776C188.952 27.2776 190.262 27.7825 191.14 28.7892C192.019 29.7959 192.458 31.2134 192.458 33.0386V48.2142C192.458 48.9167 193.041 49.4874 193.759 49.4874H198.935C199.653 49.4874 200.236 48.9167 200.236 48.2142V31.4486C200.236 28.1651 199.38 25.5967 197.666 23.7464C195.951 21.8961 193.522 20.9709 190.378 20.9709L190.384 20.9678Z" fill="white"/>
<path d="M223.208 22.1281C221.397 21.3535 219.256 20.9678 216.789 20.9678C214.321 20.9678 212.122 21.3472 210.302 22.103C208.481 22.8588 207.061 23.9063 206.039 25.2454C205.017 26.5845 204.427 28.1118 204.267 29.8335L204.241 30.1471H211.382L211.436 29.9119C211.632 29.0087 212.154 28.2655 213.01 27.6822C213.862 27.0988 215.016 26.8072 216.474 26.8072C218.003 26.8072 219.167 27.1647 219.965 27.8766C220.763 28.5885 221.163 29.5638 221.163 30.7963V32.5055L214.103 32.9351C210.568 33.1609 207.827 34.0014 205.885 35.4503C203.94 36.9023 202.969 38.8968 202.969 41.4339V41.4873C202.969 43.1212 203.373 44.5763 204.18 45.8527C204.988 47.1291 206.116 48.1295 207.565 48.8508C209.013 49.5721 210.686 49.9328 212.587 49.9328C213.83 49.9328 214.987 49.7509 216.064 49.3839C217.138 49.0202 218.093 48.4902 218.926 47.7939C219.76 47.0977 220.455 46.2823 221.003 45.3447H221.163V48.2173C221.163 48.9198 221.747 49.4906 222.465 49.4906H227.641C228.358 49.4906 228.942 48.9198 228.942 48.2173V30.329C228.942 28.4536 228.439 26.8103 227.435 25.4022C226.432 23.9941 225.025 22.9027 223.211 22.1313L223.208 22.1281ZM220.368 41.8887C219.843 42.6633 219.125 43.2717 218.212 43.7139C217.298 44.1561 216.263 44.3787 215.109 44.3787C213.76 44.3787 212.686 44.0871 211.885 43.5069C211.087 42.9236 210.686 42.1207 210.686 41.0952V41.0419C210.686 40.0509 211.077 39.2606 211.859 38.671C212.641 38.0815 213.779 37.7428 215.269 37.6549L221.157 37.2692V39.2983C221.157 40.2548 220.894 41.1203 220.372 41.8918L220.368 41.8887Z" fill="white"/>
<path d="M238.696 11.8701H233.52C232.801 11.8701 232.219 12.4402 232.219 13.1434V48.2143C232.219 48.9175 232.801 49.4876 233.52 49.4876H238.696C239.415 49.4876 239.997 48.9175 239.997 48.2143V13.1434C239.997 12.4402 239.415 11.8701 238.696 11.8701Z" fill="white"/>
</g>
<defs>
<clipPath id="clip0_349_2156">
<rect width="240" height="61.4173" fill="white"/>
</clipPath>
</defs>
</svg>
