<svg width="125" height="32" viewBox="0 0 125 32" fill="none" xmlns="http://www.w3.org/2000/svg">
<g clip-path="url(#clip0_350_1122)">
<path d="M32.2847 25.5297C32.2847 25.4629 32.2581 25.4041 32.2114 25.3601L21.6953 15.9685V25.5216C21.6953 25.6585 21.8086 25.7694 21.9486 25.7694H32.0381C32.1731 25.7694 32.2831 25.6634 32.2831 25.5297H32.2847Z" fill="#18AE54"/>
<path d="M32.2847 6.40733C32.2847 6.47419 32.2581 6.5329 32.2114 6.57693L21.6953 15.9685V6.41548C21.6953 6.2785 21.8086 6.1676 21.9486 6.1676H32.0381C32.1731 6.1676 32.2831 6.2736 32.2831 6.40733H32.2847Z" fill="#18AE54"/>
<path d="M20.923 15.9685L10.8619 6.1203C10.6602 5.92298 10.5469 5.65553 10.5469 5.37667V3.46051C10.5469 3.28602 10.6619 3.1311 10.8319 3.07891L20.5813 0.0114327C20.7447 -0.0407519 20.913 0.0799251 20.913 0.247894L20.9247 15.9685H20.923Z" fill="#18AE54"/>
<path d="M20.923 15.9685L10.8619 25.8168C10.6602 26.0141 10.5469 26.2815 10.5469 26.5604V28.4766C10.5469 28.651 10.6619 28.806 10.8319 28.8582L20.5797 31.924C20.743 31.9762 20.9113 31.8555 20.9113 31.6875L20.923 15.9669V15.9685Z" fill="#18AE54"/>
<path d="M19.6134 15.9686H8.93734L0.0678167 6.58349C-0.0821753 6.42531 0.0328185 6.16602 0.254473 6.16602H9.10233C9.38732 6.16602 9.66064 6.27691 9.86229 6.47423L19.6151 15.9669L19.6134 15.9686Z" fill="#F9DF31"/>
<path d="M19.6134 15.9685H8.93734L0.0678167 25.352C-0.0821753 25.5101 0.0328185 25.7694 0.254473 25.7694H9.10233C9.38732 25.7694 9.66064 25.6585 9.86229 25.4612L19.6151 15.9685H19.6134Z" fill="#18AE54"/>
<path d="M39.0039 6.83458V25.0715C39.0039 25.4368 39.3072 25.7336 39.6805 25.7336H52.2482V22.3579H43.1887V17.4509H51.7366V14.2383H43.1887V9.54818H52.2482V6.17249H39.6805C39.3072 6.17249 39.0039 6.46929 39.0039 6.83458Z" fill="black"/>
<path d="M62.3914 23.0282H62.388C62.2497 23.0429 62.0881 23.0494 61.9031 23.0494C61.2931 23.0494 60.8348 22.9157 60.5248 22.6499C60.2148 22.384 60.0615 21.9111 60.0615 21.2327V14.1845H62.0997C62.473 14.1845 62.7764 13.8877 62.7764 13.5224V11.8639C62.7764 11.4986 62.473 11.2018 62.0997 11.2018H60.0615V8.31212C60.0615 7.94682 59.7582 7.65002 59.3849 7.65002H56.6517C56.2784 7.65002 55.975 7.94682 55.975 8.31212V11.2018H54.5868C54.2135 11.2018 53.9102 11.4986 53.9102 11.8639V13.5224C53.9102 13.8877 54.2135 14.1845 54.5868 14.1845H55.975V21.6665C55.975 23.2206 56.3717 24.3377 57.1666 25.0145C57.9616 25.6929 59.1799 26.0304 60.8248 26.0304C61.2498 26.0304 61.6264 26.0141 61.9531 25.9831C62.1447 25.9652 62.318 25.9456 62.4747 25.9244C62.648 25.9016 62.778 25.7581 62.778 25.5885V23.3674C62.778 23.1652 62.5997 23.007 62.3947 23.0282H62.3914Z" fill="black"/>
<path d="M74.7961 11.8051C73.7379 11.2034 72.4846 10.9033 71.0347 10.9033C69.5847 10.9033 68.3265 11.2132 67.2599 11.8312C66.1933 12.4509 65.3633 13.3266 64.7733 14.4617C64.1817 15.5967 63.8867 16.9355 63.8867 18.4815V18.4946C63.8867 20.0405 64.1817 21.3778 64.7733 22.5063C65.365 23.6364 66.2049 24.5056 67.2949 25.1155C68.3848 25.7254 69.6864 26.0303 71.2013 26.0303C72.2629 26.0303 73.1896 25.895 73.9795 25.6243C74.7695 25.3536 75.4394 24.9915 75.9877 24.5398C76.5377 24.0881 76.9744 23.5907 77.2977 23.0493C77.621 22.5063 77.8376 21.9697 77.9493 21.4365L77.991 21.2881H74.2778L74.2495 21.3696C74.1562 21.6403 73.9812 21.9078 73.7229 22.1687C73.4645 22.4312 73.1312 22.6481 72.7246 22.8194C72.3179 22.9906 71.838 23.077 71.2847 23.077C70.583 23.077 69.9781 22.9254 69.4698 22.6237C68.9614 22.3203 68.5715 21.8849 68.2998 21.3158C68.0448 20.7825 67.9098 20.1498 67.8948 19.4176H78.116V18.1847C78.116 16.7203 77.8276 15.4418 77.2493 14.3491C76.6727 13.2565 75.8544 12.4085 74.7978 11.8068L74.7961 11.8051ZM69.4348 14.3067C69.9197 14.0083 70.4764 13.8599 71.1047 13.8599C71.733 13.8599 72.2846 14.005 72.7596 14.2937C73.2345 14.5823 73.6062 15.0145 73.8745 15.5885C74.0512 15.9685 74.1695 16.4104 74.2295 16.9111H67.9398C68.0015 16.4251 68.1198 15.993 68.2981 15.6162C68.5698 15.0422 68.9498 14.6068 69.4348 14.3084V14.3067Z" fill="black"/>
<path d="M88.2413 10.9539C88.218 10.9506 88.193 10.9474 88.168 10.9441C87.9647 10.9164 87.753 10.9033 87.5314 10.9033C86.6631 10.9033 85.9381 11.1512 85.3565 11.6486C84.7748 12.146 84.3732 12.8407 84.1515 13.736H84.0682V11.7252C84.0682 11.4366 83.8282 11.2018 83.5332 11.2018H80.5584C80.2634 11.2018 80.0234 11.4366 80.0234 11.7252V25.2101C80.0234 25.4987 80.2634 25.7335 80.5584 25.7335H83.5332C83.8282 25.7335 84.0682 25.4987 84.0682 25.2101V17.6009C84.0682 16.8964 84.1932 16.2995 84.4415 15.8119C84.6915 15.3243 85.0515 14.9542 85.5215 14.6998C85.9931 14.447 86.5614 14.3198 87.2247 14.3198C87.5197 14.3198 87.798 14.3394 88.0563 14.3801C88.0597 14.3801 88.0613 14.3801 88.0647 14.3801C88.393 14.4323 88.6946 14.191 88.6946 13.8648V11.4708C88.6946 11.2115 88.503 10.9914 88.2413 10.9522V10.9539Z" fill="black"/>
<path d="M98.9977 10.9033C97.8811 10.9033 96.9428 11.143 96.1862 11.6225C95.4296 12.1019 94.8563 12.7575 94.4679 13.5876H94.3846V11.8638C94.3846 11.4986 94.0813 11.2018 93.708 11.2018H91.0165C90.6432 11.2018 90.3398 11.4986 90.3398 11.8638V25.0715C90.3398 25.4367 90.6432 25.7335 91.0165 25.7335H93.708C94.0813 25.7335 94.3846 25.4367 94.3846 25.0715V17.3824C94.3846 16.7496 94.5063 16.1935 94.7513 15.7157C94.9963 15.2363 95.3396 14.8612 95.7829 14.5905C96.2262 14.3198 96.7478 14.1844 97.3478 14.1844C98.2528 14.1844 98.9344 14.447 99.391 14.9705C99.8477 15.4939 100.076 16.231 100.076 17.1802V25.0715C100.076 25.4367 100.379 25.7335 100.753 25.7335H103.444C103.817 25.7335 104.121 25.4367 104.121 25.0715V16.3534C104.121 14.6459 103.676 13.3103 102.784 12.3482C101.893 11.386 100.629 10.905 98.9944 10.905L98.9977 10.9033Z" fill="black"/>
<path d="M116.067 11.5067C115.126 11.1039 114.013 10.9033 112.729 10.9033C111.446 10.9033 110.303 11.1006 109.356 11.4937C108.409 11.8867 107.671 12.4314 107.14 13.1277C106.608 13.824 106.301 14.6182 106.218 15.5135L106.205 15.6766H109.918L109.946 15.5543C110.048 15.0846 110.319 14.6981 110.764 14.3948C111.208 14.0915 111.808 13.9398 112.566 13.9398C113.361 13.9398 113.966 14.1257 114.381 14.4959C114.796 14.8661 115.004 15.3733 115.004 16.0142V16.9029L111.333 17.1263C109.494 17.2438 108.07 17.6808 107.06 18.4342C106.048 19.1893 105.543 20.2264 105.543 21.5457V21.5735C105.543 22.4231 105.753 23.1798 106.173 23.8435C106.593 24.5072 107.18 25.0274 107.933 25.4025C108.686 25.7776 109.556 25.9651 110.544 25.9651C111.191 25.9651 111.793 25.8705 112.353 25.6797C112.911 25.4906 113.408 25.215 113.841 24.8529C114.274 24.4909 114.636 24.0669 114.921 23.5793H115.004V25.0731C115.004 25.4384 115.307 25.7352 115.681 25.7352H118.372C118.746 25.7352 119.049 25.4384 119.049 25.0731V15.7712C119.049 14.796 118.787 13.9414 118.266 13.2092C117.744 12.477 117.012 11.9095 116.069 11.5083L116.067 11.5067ZM114.591 21.7822C114.318 22.185 113.944 22.5014 113.469 22.7313C112.994 22.9612 112.456 23.077 111.856 23.077C111.154 23.077 110.596 22.9254 110.179 22.6237C109.764 22.3203 109.556 21.9029 109.556 21.3696V21.3419C109.556 20.8266 109.759 20.4156 110.166 20.109C110.573 19.8024 111.164 19.6263 111.939 19.5806L115.001 19.3801V20.4352C115.001 20.9326 114.864 21.3827 114.592 21.7838L114.591 21.7822Z" fill="black"/>
<path d="M124.122 6.17249H121.431C121.057 6.17249 120.754 6.46891 120.754 6.83458V25.0715C120.754 25.4371 121.057 25.7336 121.431 25.7336H124.122C124.496 25.7336 124.799 25.4371 124.799 25.0715V6.83458C124.799 6.46891 124.496 6.17249 124.122 6.17249Z" fill="black"/>
</g>
<defs>
<clipPath id="clip0_350_1122">
<rect width="124.8" height="31.937" fill="white"/>
</clipPath>
</defs>
</svg>
