<?xml version="1.0" encoding="UTF-8"?>
<svg id="Layer_2" data-name="Layer 2" xmlns="http://www.w3.org/2000/svg" viewBox="0 0 577.56 420.56">
  <defs>
    <style>
      .cls-1 {
        fill: #f9df31;
      }

      .cls-2 {
        fill: #18ae54;
      }

      .cls-3 {
        fill: #161616;
      }
    </style>
  </defs>
  <g id="Layer_1-2" data-name="Layer 1">
    <g>
      <g>
        <path class="cls-2" d="M421.9,215.15c0-.56-.22-1.06-.6-1.42l-86.72-79.15v80.51c0,1.16.93,2.09,2.09,2.09h83.2c1.12,0,2.02-.89,2.02-2.02Z"/>
        <path class="cls-2" d="M421.9,54c0,.56-.22,1.06-.6,1.42l-86.72,79.15V54.07c0-1.16.93-2.09,2.09-2.09h83.2c1.12,0,2.02.89,2.02,2.02Z"/>
        <path class="cls-2" d="M328.2,134.57l-82.97-82.99c-1.66-1.66-2.59-3.92-2.59-6.27v-16.15c0-1.47.95-2.77,2.35-3.22L325.37.1c1.35-.43,2.73.57,2.73,1.99l.09,132.48Z"/>
        <path class="cls-2" d="M328.2,134.57l-82.97,82.99c-1.66,1.66-2.59,3.92-2.59,6.27v16.15c0,1.47.95,2.77,2.35,3.22l80.39,25.84c1.35.43,2.73-.57,2.73-1.99l.09-132.48Z"/>
        <path class="cls-1" d="M317.41,134.57h-88.04l-73.15-79.09c-1.24-1.34-.29-3.51,1.54-3.51h72.96c2.35,0,4.6.93,6.26,2.59l80.43,80Z"/>
        <path class="cls-2" d="M317.41,134.57h-88.04l-73.15,79.09c-1.24,1.34-.29,3.51,1.54,3.51h72.96c2.35,0,4.6-.93,6.26-2.59l80.43-80Z"/>
      </g>
      <g>
        <path class="cls-3" d="M0,288.49v125.46c0,2.52,2.04,4.55,4.55,4.55h84.6v-23.22H28.16v-33.76h57.54v-22.1H28.16v-32.27h60.99v-23.22H4.55c-2.52,0-4.55,2.04-4.55,4.55Z"/>
        <path class="cls-3" d="M155.48,318.53h-13.72v-19.88c0-2.52-2.04-4.55-4.55-4.55h-18.4c-2.52,0-4.55,2.04-4.55,4.55v19.88h-9.34c-2.52,0-4.55,2.04-4.55,4.55v11.41c0,2.52,2.04,4.55,4.55,4.55h9.34v51.48c0,10.69,2.67,18.37,8.02,23.03,5.35,4.66,13.55,6.99,24.62,6.99,2.86,0,5.39-.11,7.6-.33,1.29-.13,2.46-.26,3.51-.4,1.17-.15,2.04-1.14,2.04-2.32v-15.28c0-1.39-1.2-2.48-2.58-2.34h-.03c-.93.1-2.02.14-3.26.14-4.1,0-7.2-.92-9.28-2.75-2.08-1.83-3.12-5.08-3.12-9.75v-48.49h13.72c2.52,0,4.55-2.04,4.55-4.55v-11.41c0-2.52-2.04-4.55-4.55-4.55Z"/>
        <path class="cls-3" d="M240.94,322.68c-7.12-4.13-15.56-6.2-25.32-6.2s-18.23,2.13-25.41,6.39c-7.18,4.26-12.76,10.29-16.74,18.09-3.98,7.8-5.97,17.02-5.97,27.65v.09c0,10.63,1.99,19.83,5.97,27.6,3.98,7.77,9.64,13.76,16.97,17.95,7.34,4.2,16.1,6.29,26.3,6.29,7.15,0,13.38-.93,18.7-2.8,5.32-1.87,9.82-4.35,13.52-7.46,3.7-3.11,6.64-6.53,8.81-10.26,2.17-3.73,3.64-7.43,4.38-11.1l.28-1.03h-24.99l-.19.56c-.62,1.86-1.8,3.7-3.54,5.5-1.74,1.8-3.98,3.3-6.72,4.48-2.74,1.18-5.97,1.77-9.7,1.77-4.73,0-8.8-1.04-12.22-3.12-3.42-2.08-6.05-5.08-7.88-9-1.72-3.67-2.62-8.03-2.73-13.06h68.8v-8.49c0-10.07-1.94-18.87-5.83-26.39-3.89-7.52-9.39-13.35-16.51-17.49ZM204.85,339.89c3.26-2.05,7.01-3.08,11.24-3.08s7.94,1,11.15,2.98c3.2,1.99,5.7,4.96,7.51,8.91,1.19,2.61,1.98,5.65,2.39,9.09h-42.34c.41-3.35,1.21-6.32,2.42-8.91,1.83-3.95,4.38-6.95,7.65-9Z"/>
        <path class="cls-3" d="M331.45,316.83c-.16-.02-.33-.05-.5-.07-1.37-.19-2.8-.28-4.29-.28-5.84,0-10.72,1.71-14.64,5.13-3.92,3.42-6.62,8.21-8.11,14.36h-.56v-13.84c0-1.99-1.61-3.6-3.6-3.6h-20.03c-1.99,0-3.6,1.61-3.6,3.6v92.77c0,1.99,1.61,3.6,3.6,3.6h20.03c1.99,0,3.6-1.61,3.6-3.6v-52.35c0-4.85.84-8.95,2.52-12.31,1.68-3.36,4.1-5.91,7.27-7.65,3.17-1.74,7-2.61,11.47-2.61,1.99,0,3.85.14,5.6.42.02,0,.03,0,.05,0,2.22.36,4.24-1.3,4.24-3.55v-16.47c0-1.78-1.29-3.3-3.05-3.56Z"/>
        <path class="cls-3" d="M403.88,316.48c-7.52,0-13.83,1.65-18.93,4.94-5.1,3.3-8.95,7.8-11.56,13.52h-.56v-11.86c0-2.52-2.04-4.55-4.55-4.55h-18.12c-2.52,0-4.55,2.04-4.55,4.55v90.86c0,2.52,2.04,4.55,4.55,4.55h18.12c2.52,0,4.55-2.04,4.55-4.55v-52.89c0-4.35.82-8.18,2.47-11.47,1.65-3.29,3.96-5.88,6.95-7.74,2.98-1.87,6.5-2.8,10.54-2.8,6.09,0,10.68,1.8,13.76,5.41,3.08,3.61,4.62,8.67,4.62,15.2v54.29c0,2.52,2.04,4.55,4.55,4.55h18.12c2.52,0,4.55-2.04,4.55-4.55v-59.98c0-11.75-3-20.94-9-27.56-6-6.62-14.5-9.93-25.51-9.93Z"/>
        <path class="cls-3" d="M518.78,320.63c-6.34-2.77-13.83-4.15-22.48-4.15s-16.34,1.35-22.71,4.06c-6.37,2.7-11.35,6.45-14.92,11.24-3.58,4.79-5.64,10.26-6.2,16.41l-.09,1.12h24.99l.19-.84c.68-3.23,2.52-5.89,5.5-7.97,2.98-2.08,7.02-3.12,12.12-3.12,5.35,0,9.42,1.28,12.22,3.82,2.8,2.55,4.2,6.03,4.2,10.44v6.11l-24.71,1.54c-12.37.81-21.96,3.81-28.77,9-6.81,5.19-10.21,12.33-10.21,21.4v.19c0,5.84,1.41,11.05,4.24,15.62,2.83,4.57,6.78,8.15,11.84,10.72,5.07,2.58,10.93,3.87,17.58,3.87,4.35,0,8.41-.65,12.17-1.96,3.76-1.31,7.1-3.2,10.02-5.69,2.92-2.49,5.35-5.41,7.27-8.77h.56v10.27c0,2.52,2.04,4.55,4.55,4.55h18.12c2.52,0,4.55-2.04,4.55-4.55v-63.99c0-6.71-1.76-12.59-5.27-17.63-3.51-5.04-8.44-8.94-14.78-11.7ZM508.85,391.32c-1.83,2.77-4.35,4.94-7.55,6.53-3.2,1.59-6.82,2.38-10.86,2.38-4.73,0-8.49-1.04-11.28-3.12-2.8-2.08-4.2-4.96-4.2-8.63v-.19c0-3.54,1.37-6.37,4.1-8.49,2.74-2.11,6.72-3.33,11.94-3.64l20.61-1.38v7.25c0,3.42-.92,6.51-2.75,9.28Z"/>
        <rect class="cls-3" x="550.33" y="283.94" width="27.23" height="134.57" rx="4.55" ry="4.55"/>
      </g>
    </g>
  </g>
</svg>